<svg width="30" height="18" viewBox="0 0 30 18" fill="none" xmlns="http://www.w3.org/2000/svg">
<path d="M24.8937 10.1993C24.4087 9.62765 24.5475 9.37331 24.8937 8.86231C24.9 8.85643 28.9037 3.69281 29.3163 1.94165L29.3187 1.94048C29.5237 1.30231 29.3187 0.833313 28.3275 0.833313H25.0475C24.2125 0.833313 23.8275 1.23581 23.6213 1.68615C23.6213 1.68615 21.9513 5.41719 19.5887 7.83565C18.8263 8.53443 18.4737 8.75853 18.0575 8.75853C17.8525 8.75853 17.5337 8.53453 17.5337 7.89631V1.94048C17.5337 1.17515 17.3 0.833313 16.6087 0.833313H11.4513C10.9275 0.833313 10.6163 1.19031 10.6163 1.52281C10.6163 2.24848 11.7975 2.41531 11.92 4.45698V8.88677C11.92 9.85743 11.7313 10.036 11.3125 10.036C10.1975 10.036 7.49125 6.28977 5.8875 2.00231C5.56375 1.17048 5.2475 0.834479 4.40625 0.834479H1.125C0.18875 0.834479 0 1.23698 0 1.68731C0 2.48298 1.115 6.4391 5.185 11.6658C7.8975 15.2335 11.7175 17.1666 15.1925 17.1666C17.2813 17.1666 17.5363 16.7373 17.5363 15.9989C17.5363 12.5899 17.3475 12.2678 18.3937 12.2678C18.8787 12.2678 19.7137 12.4919 21.6637 14.2126C23.8925 16.2531 24.2587 17.1666 25.5063 17.1666H28.7863C29.7213 17.1666 30.195 16.7373 29.9225 15.8903C29.2987 14.1089 25.0837 10.4443 24.8937 10.1993Z" fill="#4B729F"/>
</svg>
