<svg width="26" height="25" viewBox="0 0 26 25" fill="none" xmlns="http://www.w3.org/2000/svg">
<g clip-path="url(#clip0)">
<path d="M1.625 1.70097C-0.418174 3.74159 -7.50273e-06 5.90931 -7.50273e-06 12.4947C-7.50273e-06 17.9634 -0.992343 23.4458 4.20116 24.7364C5.82291 25.1374 20.1922 25.1374 21.8118 24.7343C23.9742 24.1978 25.7335 22.5114 25.974 19.5708C26.0076 19.1603 26.0076 5.83638 25.9729 5.41763C25.7172 2.28534 23.712 0.480137 21.0697 0.114512C20.4642 0.0301372 20.3428 0.00513715 17.2358 -7.11791e-05C6.21508 0.00513715 3.79925 -0.466738 1.625 1.70097Z" fill="url(#paint0_linear)"/>
<path d="M12.9977 3.26991C9.06418 3.26991 5.32885 2.93345 3.9021 6.45429C3.31277 7.90845 3.39835 9.79696 3.39835 12.5012C3.39835 14.8741 3.31927 17.1043 3.9021 18.547C5.3256 22.0699 9.09123 21.7324 12.9956 21.7324C16.7624 21.7324 20.6461 22.1095 22.0902 18.547C22.6806 17.0782 22.5939 15.2178 22.5939 12.5012C22.5939 8.89493 22.8009 6.56678 20.9819 4.81887C19.1402 3.04803 16.6497 3.26991 12.9934 3.26991H12.9977ZM12.1376 4.93345C20.3427 4.92095 21.3871 4.04387 20.8107 16.2282C20.606 20.5376 17.1935 20.0647 12.9989 20.0647C5.35052 20.0647 5.1306 19.8543 5.1306 12.497C5.1306 5.05429 5.73727 4.93762 12.1376 4.93137V4.93345ZM18.1219 6.46574C17.486 6.46574 16.9704 6.96158 16.9704 7.57303C16.9704 8.18446 17.486 8.68032 18.1219 8.68032C18.7579 8.68032 19.2735 8.18446 19.2735 7.57303C19.2735 6.96158 18.7579 6.46574 18.1219 6.46574ZM12.9977 7.76053C10.2754 7.76053 8.0686 9.88345 8.0686 12.5012C8.0686 15.1188 10.2754 17.2407 12.9977 17.2407C15.7202 17.2407 17.9259 15.1188 17.9259 12.5012C17.9259 9.88345 15.7202 7.76053 12.9977 7.76053ZM12.9977 9.42407C17.2282 9.42407 17.2336 15.5782 12.9977 15.5782C8.76843 15.5782 8.76193 9.42407 12.9977 9.42407Z" fill="white"/>
</g>
<defs>
<linearGradient id="paint0_linear" x1="1.67485" y1="23.4031" x2="25.0232" y2="2.38716" gradientUnits="userSpaceOnUse">
<stop stop-color="#FFDD55"/>
<stop offset="0.5" stop-color="#FF543E"/>
<stop offset="1" stop-color="#C837AB"/>
</linearGradient>
<clipPath id="clip0">
<rect width="26" height="25" fill="white"/>
</clipPath>
</defs>
</svg>
