<svg width="30" height="27" viewBox="0 0 30 27" fill="none" xmlns="http://www.w3.org/2000/svg">
<path d="M22.3787 0C18.1925 0 14.7775 3.55083 14.745 7.92878L9.99127 15.0765C8.665 14.9501 7.52125 15.2385 6.51 15.8852L0 13.1234V20.6662L3.85 22.2901C4.40625 24.9756 6.6975 27 9.40873 27C12.3563 27 14.7987 24.6253 15.0675 21.6013L22.3863 15.9919C26.585 15.9919 30 12.4213 30 7.99331L29.9987 7.992C29.9987 3.58507 26.5837 0 22.3787 0ZM9.40873 25.409C7.8 25.409 6.415 24.4594 5.71125 23.0751C6.39375 23.3491 7.08375 23.6506 7.7675 23.9325C9.47627 24.6701 11.4175 23.7916 12.1 21.9991C12.79 20.2065 11.9525 18.1835 10.2463 17.4657L8.505 16.7281C8.80625 16.657 9.10745 16.6228 9.40873 16.6228C11.7325 16.6228 13.5937 18.576 13.5937 21.0152C13.5937 23.4558 11.7325 25.409 9.40873 25.409ZM22.3863 13.3499C19.56 13.3499 17.2637 10.9594 17.2637 7.99331C17.2637 5.04044 19.5537 2.63678 22.3863 2.63678C25.1925 2.63678 27.4887 5.04044 27.4887 7.99331C27.4887 10.9673 25.1913 13.3578 22.3863 13.3499Z" fill="#3D3D3D"/>
<path d="M22.3999 3.56945C20.1437 3.56945 18.3162 5.60423 18.3162 8.11523C18.3162 10.6262 20.1374 12.661 22.3999 12.661C24.6425 12.661 26.4837 10.6332 26.4837 8.11523C26.4837 5.59725 24.6425 3.56945 22.3999 3.56945Z" fill="#3D3D3D"/>
</svg>
