<svg width="28" height="28" viewBox="0 0 28 28" fill="none" xmlns="http://www.w3.org/2000/svg">
<path d="M9.95853 14.5141C7.73826 14.5141 5.9445 16.3078 5.97731 18.5063C5.99919 19.9173 6.77575 21.1423 7.91872 21.8258C7.53044 21.2297 7.30075 20.5243 7.28982 19.7641C7.257 17.5657 9.05077 15.772 11.2711 15.772C11.7085 15.772 12.1296 15.843 12.5234 15.9688V11.5664C12.1132 11.5063 11.6921 11.4735 11.2711 11.4735C11.2492 11.4735 11.2328 11.4735 11.2109 11.4735V14.711C10.8172 14.5852 10.396 14.5141 9.95853 14.5141Z" fill="#F00044"/>
<path d="M19.5562 1.3125H19.5234H18.3859C18.7141 2.9586 19.6383 4.3914 20.9289 5.36484C20.0813 4.24375 19.5672 2.84375 19.5562 1.3125Z" fill="#F00044"/>
<path d="M26.25 8.0116C25.818 8.0116 25.4023 7.96784 24.9921 7.89129V11.0467C23.5047 11.0467 22.0609 10.7569 20.7047 10.1773C19.8297 9.80535 19.0149 9.3296 18.2656 8.75535L18.2875 18.4843C18.2765 20.6717 17.4125 22.7226 15.8484 24.2701C14.5742 25.528 12.9609 26.3319 11.2109 26.589C10.8008 26.6491 10.3797 26.6819 9.95854 26.6819C8.0883 26.6819 6.30546 26.0749 4.85623 24.9538C5.0203 25.1507 5.1953 25.3421 5.3867 25.528C6.9617 27.0811 9.05078 27.9397 11.2765 27.9397C11.6977 27.9397 12.1187 27.9069 12.5289 27.8467C14.2789 27.5897 15.8921 26.7858 17.1664 25.528C18.7305 23.9804 19.5945 21.9296 19.6054 19.7421L19.5234 10.0131C20.2672 10.5874 21.082 11.0686 21.9625 11.435C23.3242 12.0093 24.768 12.3046 26.25 12.3046" fill="#F00044"/>
<path d="M5.37029 13.8962C6.92888 12.3485 9.00157 11.49 11.2109 11.4735V10.3087C10.8008 10.2485 10.3797 10.2157 9.95853 10.2157C7.72732 10.2157 5.63279 11.0743 4.05779 12.6384C2.51014 14.1751 1.62419 16.2751 1.62966 18.4571C1.62966 20.6555 2.49919 22.7173 4.06873 24.2758C4.32029 24.522 4.57732 24.7517 4.85076 24.9595C3.61482 23.4884 2.94217 21.6508 2.9367 19.715C2.94217 17.5329 3.82263 15.4329 5.37029 13.8962Z" fill="#08FFF9"/>
<path d="M24.9922 7.89136V6.72105H24.9813C23.461 6.72105 22.061 6.21793 20.9344 5.3648C21.9133 6.65543 23.3461 7.57418 24.9922 7.89136Z" fill="#08FFF9"/>
<path d="M11.0469 23.636C11.5664 23.6633 12.0641 23.5922 12.5234 23.4446C14.1093 22.925 15.2523 21.4484 15.2523 19.7094L15.2578 13.2016V1.3125H18.3859C18.3039 0.902341 18.2601 0.486719 18.2547 0.0546875H13.9453V11.9383L13.9398 18.4461C13.9398 20.1851 12.7969 21.6617 11.2109 22.1813C10.7516 22.3344 10.2539 22.4054 9.73438 22.3727C9.07262 22.3344 8.4547 22.1375 7.91873 21.8203C8.59142 22.8594 9.73982 23.5649 11.0469 23.636Z" fill="#08FFF9"/>
<path d="M11.2109 26.589C12.9609 26.332 14.5742 25.5281 15.8484 24.2703C17.4125 22.7227 18.2765 20.6719 18.2875 18.4844L18.2656 8.75544C19.0093 9.32968 19.8242 9.81095 20.7047 10.1773C22.0664 10.7516 23.5101 11.0469 24.9921 11.0469V7.89141C23.3461 7.57422 21.9133 6.65547 20.9344 5.36484C19.6437 4.3914 18.7141 2.9586 18.3914 1.3125H15.2578V13.1961L15.2523 19.7039C15.2523 21.443 14.1093 22.9196 12.5234 23.439C12.0641 23.5922 11.5664 23.6633 11.0469 23.6304C9.73437 23.5594 8.59141 22.8539 7.91872 21.8203C6.77576 21.1422 5.99919 19.9117 5.97732 18.5008C5.94451 16.3023 7.73825 14.5086 9.95853 14.5086C10.3961 14.5086 10.8172 14.5797 11.2109 14.7054V11.468C9.00157 11.4844 6.92888 12.343 5.37028 13.8906C3.82263 15.4273 2.93669 17.5273 2.94216 19.7039C2.94216 21.6399 3.61482 23.4773 4.85622 24.9484C6.31091 26.0696 8.08829 26.6766 9.95853 26.6766C10.3797 26.682 10.8008 26.6492 11.2109 26.589Z" fill="black"/>
</svg>
