<svg width="17" height="17" viewBox="0 0 17 17" fill="none" xmlns="http://www.w3.org/2000/svg">
<path d="M15.7597 2.46601C14.9212 1.51461 13.758 0.990662 12.4844 0.990662C10.6931 0.990662 9.55908 2.06047 8.92317 2.95795C8.75819 3.19083 8.61784 3.42435 8.5 3.64409C8.38216 3.42435 8.24185 3.19083 8.07683 2.95795C7.44092 2.06047 6.30687 0.990662 4.51562 0.990662C3.24202 0.990662 2.07881 1.51464 1.2403 2.46604C0.440506 3.37362 0 4.58912 0 5.88862C0 7.30317 0.552268 8.61885 1.73802 10.029C2.79776 11.2894 4.32235 12.5886 6.08779 14.093C6.74565 14.6536 7.42595 15.2333 8.1502 15.867L8.17195 15.8861C8.26585 15.9683 8.38293 16.0094 8.5 16.0094C8.61707 16.0094 8.73415 15.9683 8.82805 15.8861L8.8498 15.867C9.57405 15.2333 10.2544 14.6536 10.9123 14.0929C12.6777 12.5886 14.2022 11.2895 15.262 10.029C16.4477 8.61881 17 7.30317 17 5.88862C17 4.58912 16.5595 3.37362 15.7597 2.46601ZM10.2662 13.3349C9.69906 13.8181 9.11542 14.3154 8.5 14.8504C7.88461 14.3155 7.30094 13.8181 6.73373 13.3348C3.27864 10.3906 0.996094 8.44549 0.996094 5.88862C0.996094 4.83177 1.34821 3.85015 1.98761 3.12463C2.63434 2.39087 3.53212 1.98676 4.51562 1.98676C5.88124 1.98676 6.76401 2.82806 7.26405 3.53382C7.71259 4.16681 7.94664 4.8049 8.02646 5.04984C8.09323 5.25487 8.28438 5.39363 8.5 5.39363C8.71562 5.39363 8.90677 5.25487 8.97354 5.04984C9.05336 4.8049 9.28741 4.16681 9.73595 3.53379C10.236 2.82806 11.1188 1.98676 12.4844 1.98676C13.4679 1.98676 14.3657 2.39087 15.0124 3.12463C15.6518 3.85015 16.0039 4.83177 16.0039 5.88862C16.0039 8.44549 13.7214 10.3906 10.2662 13.3349Z" fill="#2B83EB"/>
</svg>
